<?xml version="1.0" encoding="iso-8859-1"?>
<!-- Generator: Adobe Illustrator 16.0.0, SVG Export Plug-In . SVG Version: 6.00 Build 0)  -->
<!DOCTYPE svg PUBLIC "-//W3C//DTD SVG 1.1//EN" "http://www.w3.org/Graphics/SVG/1.1/DTD/svg11.dtd">
<svg version="1.1" id="Capa_1" xmlns="http://www.w3.org/2000/svg" xmlns:xlink="http://www.w3.org/1999/xlink" x="0px" y="0px"
	 width="535.5px" height="535.5px" viewBox="0 0 535.5 535.5" style="enable-background:new 0 0 535.5 535.5;" xml:space="preserve"
	>
<g>
	<path d="M535.5,258.188c0-26.775-21.037-47.812-47.812-47.812h-114.75C392.062,114.75,382.5,0,306,0s-36.338,91.8-66.938,149.175
		c-30.6,55.463-86.062,61.2-86.062,61.2H38.25c-21.038,0-38.25,17.212-38.25,38.25V459c0,21.037,17.212,38.25,38.25,38.25H153
		l114.75,38.25h61.2h82.237c26.775,0,47.812-21.037,47.812-47.812c0-11.475-3.825-21.037-9.562-28.688
		c26.775,0,47.812-21.037,47.812-47.812c0-11.475-3.825-22.95-11.475-32.513c19.125-7.649,30.6-24.862,30.6-43.987
		c0-11.475-3.825-22.95-11.475-32.513C522.112,296.438,535.5,279.225,535.5,258.188z M487.688,286.875H420.75V306h47.812
		c15.3,0,28.688,13.388,28.688,28.688s-13.388,28.688-28.688,28.688h-66.938V382.5h47.812c15.3,0,28.688,13.388,28.688,28.688
		s-13.388,28.688-28.688,28.688H382.5V459h28.688c15.3,0,28.688,13.388,28.688,28.688s-13.388,28.688-28.688,28.688h-70.763H267.75
		L153,478.125H38.25c-11.475,0-19.125-7.65-19.125-19.125V248.625c0-11.475,7.65-19.125,19.125-19.125h124.312
		c0,0,63.112-13.388,93.712-70.763S250.538,19.125,306,19.125c61.2,0,66.938,105.188,43.987,210.375h137.7
		c15.3,0,28.688,13.388,28.688,28.688S502.987,286.875,487.688,286.875z"/>
</g>
<g>
</g>
<g>
</g>
<g>
</g>
<g>
</g>
<g>
</g>
<g>
</g>
<g>
</g>
<g>
</g>
<g>
</g>
<g>
</g>
<g>
</g>
<g>
</g>
<g>
</g>
<g>
</g>
<g>
</g>
</svg>
